<svg width="25" height="25" viewBox="0 0 25 25" fill="none" xmlns="http://www.w3.org/2000/svg">
<path d="M8.4375 18.75L12.5 15.1389L16.5625 18.75L18.75 16.8056L14.6875 13.1944L18.75 9.58333L16.5625 7.63889L12.5 11.25L8.4375 7.63889L6.25 9.58333L10.3125 13.1944L6.25 16.8056L8.4375 18.75ZM4.6875 25C3.82812 25 3.09245 24.728 2.48047 24.184C1.86849 23.64 1.5625 22.9861 1.5625 22.2222V4.16667H0V1.38889H7.8125V0H17.1875V1.38889H25V4.16667H23.4375V22.2222C23.4375 22.9861 23.1315 23.64 22.5195 24.184C21.9076 24.728 21.1719 25 20.3125 25H4.6875ZM20.3125 4.16667H4.6875V22.2222H20.3125V4.16667Z" fill="#CC292E"/>
</svg>
