<svg width="30" height="24" viewBox="0 0 30 24" fill="none" xmlns="http://www.w3.org/2000/svg">
<path d="M6.81818 24C5.68182 24 4.71591 23.5625 3.92045 22.6875C3.125 21.8125 2.72727 20.75 2.72727 19.5H0V3C0 2.175 0.267045 1.46875 0.801136 0.88125C1.33523 0.29375 1.97727 0 2.72727 0H21.8182V6H25.9091L30 12V19.5H27.2727C27.2727 20.75 26.875 21.8125 26.0795 22.6875C25.2841 23.5625 24.3182 24 23.1818 24C22.0455 24 21.0795 23.5625 20.2841 22.6875C19.4886 21.8125 19.0909 20.75 19.0909 19.5H10.9091C10.9091 20.75 10.5114 21.8125 9.71591 22.6875C8.92045 23.5625 7.95455 24 6.81818 24ZM6.81818 21C7.20455 21 7.52841 20.8563 7.78977 20.5688C8.05114 20.2813 8.18182 19.925 8.18182 19.5C8.18182 19.075 8.05114 18.7188 7.78977 18.4313C7.52841 18.1438 7.20455 18 6.81818 18C6.43182 18 6.10795 18.1438 5.84659 18.4313C5.58523 18.7188 5.45455 19.075 5.45455 19.5C5.45455 19.925 5.58523 20.2813 5.84659 20.5688C6.10795 20.8563 6.43182 21 6.81818 21ZM2.72727 16.5H3.81818C4.20455 16.05 4.64773 15.6875 5.14773 15.4125C5.64773 15.1375 6.20455 15 6.81818 15C7.43182 15 7.98864 15.1375 8.48864 15.4125C8.98864 15.6875 9.43182 16.05 9.81818 16.5H19.0909V3H2.72727V16.5ZM23.1818 21C23.5682 21 23.892 20.8563 24.1534 20.5688C24.4148 20.2813 24.5455 19.925 24.5455 19.5C24.5455 19.075 24.4148 18.7188 24.1534 18.4313C23.892 18.1438 23.5682 18 23.1818 18C22.7955 18 22.4716 18.1438 22.2102 18.4313C21.9489 18.7188 21.8182 19.075 21.8182 19.5C21.8182 19.925 21.9489 20.2813 22.2102 20.5688C22.4716 20.8563 22.7955 21 23.1818 21ZM21.8182 13.5H27.6136L24.5455 9H21.8182V13.5Z" fill="#E19747"/>
</svg>
