<svg width="22" height="21" viewBox="0 0 22 21" fill="none" xmlns="http://www.w3.org/2000/svg">
<mask id="mask0_2_1794" style="mask-type:luminance" maskUnits="userSpaceOnUse" x="-1" y="0" width="23" height="21">
<path d="M21.4842 0.251953H-0.000976562V20.7989H21.4842V0.251953Z" fill="white"/>
</mask>
<g mask="url(#mask0_2_1794)">
<path d="M10.7416 0.251953C4.78435 0.251953 -0.000976562 4.82832 -0.000976562 10.5254C-0.000976562 16.2226 3.46594 19.398 8.15361 20.5187V13.7009H5.95626V10.5721H8.15361V9.21791C8.15361 5.71558 9.81382 4.08116 13.3784 4.08116C16.943 4.08116 15.2339 4.22126 15.7222 4.31465V7.16321C15.4781 7.16321 15.0386 7.16321 14.5015 7.16321C12.7436 7.16321 12.06 7.81698 12.06 9.45139V10.5721H15.5757L14.9898 13.7009H12.06V20.7522C17.3824 20.1452 21.4842 15.8023 21.4842 10.5721C21.4842 4.87502 16.65 0.298651 10.7416 0.298651V0.251953Z" fill="#FCFCFC"/>
</g>
</svg>
