<svg width="22" height="22" viewBox="0 0 22 22" fill="none" xmlns="http://www.w3.org/2000/svg">
<mask id="mask0_2_1786" style="mask-type:luminance" maskUnits="userSpaceOnUse" x="0" y="0" width="22" height="22">
<path d="M21.8269 0.470703H0V21.3446H21.8269V0.470703Z" fill="white"/>
</mask>
<g mask="url(#mask0_2_1786)">
<path d="M10.8891 2.33861C13.8188 2.33861 14.1607 2.33861 15.2837 2.38531C16.358 2.38531 16.944 2.6188 17.2858 2.75889C17.7741 2.94568 18.1647 3.17917 18.5553 3.55275C18.946 3.92633 19.1901 4.25321 19.3854 4.76689C19.5319 5.14047 19.7273 5.70084 19.7761 6.68149C19.8249 7.80224 19.8249 8.12912 19.8249 10.8843C19.8249 13.6394 19.8249 14.013 19.7761 15.0871C19.7761 16.1144 19.5319 16.6748 19.3854 17.0017C19.1901 17.4687 18.946 17.8422 18.5553 18.2158C18.1647 18.5894 17.8229 18.8229 17.2858 19.0097C16.8951 19.1498 16.3092 19.3366 15.2837 19.3833C14.1118 19.43 13.77 19.43 10.8891 19.43C8.00809 19.43 7.61746 19.43 6.49437 19.3833C5.42011 19.3833 4.83415 19.1498 4.49235 19.0097C4.00405 18.8229 3.61341 18.5894 3.22277 18.2158C2.83213 17.8422 2.58798 17.5154 2.39266 17.0017C2.24617 16.6281 2.05085 16.0677 2.00202 15.0871C1.95319 13.9663 1.95319 13.6394 1.95319 10.8843C1.95319 8.12912 1.95319 7.75554 2.00202 6.68149C2.00202 5.65414 2.24617 5.09377 2.39266 4.76689C2.58798 4.29991 2.83213 3.92633 3.22277 3.55275C3.61341 3.17917 3.95522 2.94568 4.49235 2.75889C4.88298 2.6188 5.46894 2.43201 6.49437 2.38531C7.61746 2.33861 8.00809 2.33861 10.8891 2.33861ZM10.8891 0.470703C7.91043 0.470703 7.56863 0.470703 6.39671 0.517401C5.22479 0.564098 4.44352 0.750889 3.7599 0.984377C3.02745 1.26456 2.44149 1.59145 1.8067 2.19852C1.22075 2.75889 0.830107 3.36596 0.537128 4.06642C0.292979 4.72019 0.0976597 5.46735 0.0488299 6.5881C1.09143e-08 7.70884 0 8.03573 0 10.8843C0 13.7328 1.09143e-08 14.0597 0.0488299 15.1805C0.0976597 16.3012 0.292979 17.0484 0.537128 17.7021C0.830107 18.4026 1.17192 18.963 1.8067 19.57C2.39266 20.1304 3.02745 20.504 3.7599 20.7842C4.44352 21.0177 5.22479 21.2045 6.39671 21.2512C7.56863 21.2979 7.91043 21.2979 10.8891 21.2979C13.8677 21.2979 14.2095 21.2979 15.3814 21.2512C16.5533 21.2045 17.3346 21.0177 18.0182 20.7842C18.7507 20.504 19.3366 20.1771 19.9714 19.57C20.5574 19.0097 20.948 18.4026 21.241 17.7021C21.4851 17.0484 21.6805 16.3012 21.7293 15.1805C21.7781 14.0597 21.7781 13.7328 21.7781 10.8843C21.7781 8.03573 21.7781 7.70884 21.7293 6.5881C21.6805 5.46735 21.4851 4.72019 21.241 4.06642C20.9968 3.36596 20.6062 2.80559 19.9714 2.19852C19.3854 1.63814 18.7507 1.26456 18.0182 0.984377C17.3346 0.750889 16.5533 0.564098 15.3814 0.517401C14.2095 0.470703 13.8677 0.470703 10.8891 0.470703Z" fill="#FCFCFC"/>
<path d="M10.8889 5.51355C7.81259 5.51355 5.27344 7.89513 5.27344 10.8838C5.27344 13.8724 7.76376 16.254 10.8889 16.254C14.014 16.254 16.5043 13.8724 16.5043 10.8838C16.5043 7.89513 14.014 5.51355 10.8889 5.51355ZM10.8889 14.3394C8.88685 14.3394 7.27546 12.7984 7.27546 10.8838C7.27546 8.96918 8.88685 7.42815 10.8889 7.42815C12.8909 7.42815 14.5023 8.96918 14.5023 10.8838C14.5023 12.7984 12.8909 14.3394 10.8889 14.3394Z" fill="#FCFCFC"/>
<path d="M18.0177 5.32724C18.0177 6.02771 17.4317 6.58808 16.6993 6.58808C15.9668 6.58808 15.3809 6.02771 15.3809 5.32724C15.3809 4.62678 15.9668 4.06641 16.6993 4.06641C17.4317 4.06641 18.0177 4.62678 18.0177 5.32724Z" fill="#FCFCFC"/>
</g>
</svg>
