<svg width="24" height="24" viewBox="0 0 24 24" fill="none" xmlns="http://www.w3.org/2000/svg">
<path d="M10.6667 20.91V12.69L2.66667 8.52V16.74L10.6667 20.91ZM13.3333 20.91L21.3333 16.74V8.52L13.3333 12.69V20.91ZM10.6667 23.67L1.33333 18.84C0.911111 18.62 0.583333 18.33 0.35 17.97C0.116667 17.61 0 17.21 0 16.77V7.23C0 6.79 0.116667 6.39 0.35 6.03C0.583333 5.67 0.911111 5.38 1.33333 5.16L10.6667 0.33C11.0889 0.11 11.5333 0 12 0C12.4667 0 12.9111 0.11 13.3333 0.33L22.6667 5.16C23.0889 5.38 23.4167 5.67 23.65 6.03C23.8833 6.39 24 6.79 24 7.23V16.77C24 17.21 23.8833 17.61 23.65 17.97C23.4167 18.33 23.0889 18.62 22.6667 18.84L13.3333 23.67C12.9111 23.89 12.4667 24 12 24C11.5333 24 11.0889 23.89 10.6667 23.67ZM17.3333 7.83L19.9 6.51L12 2.4L9.4 3.75L17.3333 7.83ZM12 10.62L14.6 9.27L6.7 5.16L4.1 6.51L12 10.62Z" fill="#7E7E7E"/>
</svg>
