<svg width="25" height="25" viewBox="0 0 25 25" fill="none" xmlns="http://www.w3.org/2000/svg">
<path d="M13.285 10L11.5942 8.25L13.4964 6.25H8.45411V3.75H13.4964L11.564 1.75L13.285 0L18.1159 5L13.285 10ZM7.24638 25C6.58213 25 6.01349 24.7552 5.54046 24.2656C5.06743 23.776 4.83092 23.1875 4.83092 22.5C4.83092 21.8125 5.06743 21.224 5.54046 20.7344C6.01349 20.2448 6.58213 20 7.24638 20C7.91063 20 8.47927 20.2448 8.9523 20.7344C9.42532 21.224 9.66184 21.8125 9.66184 22.5C9.66184 23.1875 9.42532 23.776 8.9523 24.2656C8.47927 24.7552 7.91063 25 7.24638 25ZM19.3237 25C18.6594 25 18.0908 24.7552 17.6178 24.2656C17.1447 23.776 16.9082 23.1875 16.9082 22.5C16.9082 21.8125 17.1447 21.224 17.6178 20.7344C18.0908 20.2448 18.6594 20 19.3237 20C19.9879 20 20.5566 20.2448 21.0296 20.7344C21.5026 21.224 21.7391 21.8125 21.7391 22.5C21.7391 23.1875 21.5026 23.776 21.0296 24.2656C20.5566 24.7552 19.9879 25 19.3237 25ZM0 2.5V0H3.95531L9.08816 11.25H17.5423L22.2524 2.5H25L19.686 12.4375C19.4646 12.8542 19.1677 13.1771 18.7953 13.4062C18.4229 13.6354 18.0153 13.75 17.5725 13.75H8.57488L7.24638 16.25H21.7391V18.75H7.24638C6.34058 18.75 5.65117 18.3438 5.17814 17.5312C4.70511 16.7188 4.69002 15.8958 5.13285 15.0625L6.76329 12L2.41546 2.5H0Z" fill="#A4B500"/>
</svg>
