<svg width="22" height="15" viewBox="0 0 22 15" fill="none" xmlns="http://www.w3.org/2000/svg">
<path d="M21.0354 3.11667C21.0354 3.11667 20.8438 1.69583 20.1729 1.1C19.3583 0.275 18.4479 0.275 18.0646 0.229167C15.0937 0 10.6375 0 10.6375 0C10.6375 0 6.18125 0 3.21042 0.229167C2.77917 0.275 1.86875 0.275 1.10208 1.1C0.479167 1.69583 0.239583 3.11667 0.239583 3.11667C0.239583 3.11667 0 4.76667 0 6.41667V7.975C0 9.625 0.191667 11.275 0.191667 11.275C0.191667 11.275 0.383333 12.6958 1.05417 13.2917C1.86875 14.1167 2.92292 14.0708 3.40208 14.1625C5.12708 14.3 10.6375 14.3458 10.6375 14.3458C10.6375 14.3458 15.0937 14.3458 18.0646 14.1167C18.4958 14.0708 19.4062 14.0708 20.1729 13.2458C20.7958 12.65 21.0354 11.2292 21.0354 11.2292C21.0354 11.2292 21.2271 9.57917 21.2271 7.92917V6.37083C21.2271 4.72083 21.0354 3.07083 21.0354 3.07083V3.11667ZM8.38542 9.85417V4.125L14.1354 7.0125L8.38542 9.85417Z" fill="white"/>
</svg>
