<svg width="58" height="65" viewBox="0 0 58 65" fill="none" xmlns="http://www.w3.org/2000/svg">
<path d="M6.67343 25.8845C9.11347 25.8845 11.1559 24.1413 11.3551 21.8005L11.4547 21.2028V20.8044L12.9987 9.1001H5.07923L2.04069 20.7047C1.79208 21.9499 2.14072 23.195 2.98741 24.2409C3.44688 24.7644 4.01416 25.1824 4.65032 25.4661C5.28649 25.7498 5.97692 25.8925 6.67343 25.8845ZM29.5835 25.8845H29.6831C31.0278 25.8845 32.3228 25.3366 33.2193 24.3405C33.9663 23.4938 34.3648 22.4977 34.3648 21.402L32.8204 9.1499H24.9018V21.4518C24.9018 23.8923 26.9936 25.8845 29.5835 25.8845ZM18.1282 25.8845H18.2278C20.8177 25.8845 22.9096 23.8923 22.9096 21.402V9.1499H14.9905L13.4461 21.4518C13.4461 22.4977 13.845 23.5437 14.5921 24.3405C15.4885 25.3366 16.7835 25.8845 18.1282 25.8845Z" fill="#F7B32C"/>
<path d="M47.8131 21.5016C47.813 22.4681 47.5879 23.4212 47.1557 24.2857C46.7234 25.1501 46.0959 25.9021 45.3229 26.4821C45.5221 26.3327 45.6715 26.1833 45.8209 26.0339V52.9786H17.6809V44.412C17.6809 40.8759 14.7922 37.9872 11.256 37.9872C7.71983 37.9872 4.83112 40.8759 4.83112 44.412V52.9786H1.99222V26.0339C2.14163 26.1833 2.34086 26.3327 2.49027 26.4821C1.71719 25.9021 1.0897 25.1501 0.657482 24.2857C0.225261 23.4212 0.000162372 22.4681 0 21.5016V54.9708H47.8131V21.5016ZM13.1984 45.707H15.1906V47.749H13.1984V45.707Z" fill="#6A3C14"/>
<path d="M36.3583 21.2028L36.4081 21.8005C36.6073 24.1413 38.6493 25.9343 41.0898 25.9343C42.5337 25.9343 43.8789 25.3366 44.7754 24.2409C45.6221 23.2448 45.9708 21.9997 45.7213 20.7047L42.733 9.1499H34.8143L36.3085 20.8044C36.3583 20.9538 36.3583 21.0534 36.3583 21.2028ZM6.32568 30.5164H9.26378V32.5086H6.32568V30.5164ZM12.7502 30.5164H15.6891V32.5086H12.7506L12.7502 30.5164ZM19.2249 30.5164H22.1638V32.5086H19.2253L19.2249 30.5164ZM25.6996 30.5164H28.6385V32.5086H25.7L25.6996 30.5164ZM32.1249 30.5164H35.063V32.5086H32.1249V30.5164ZM38.5995 30.5164H41.5376V32.5086H38.5995V30.5164ZM33.8182 50.6876V37.1405H28.0408V48.6954H26.7957V50.6876H28.0408H33.8182ZM35.8104 50.6876H42.833V48.6954H41.5879V37.1405H35.8104V50.6876Z" fill="#B3B826"/>
<path d="M55.6208 -0.00012207V64.5099Z" fill="#6A3C14"/>
<path d="M55.6208 -0.00012207V64.5099" stroke="black" stroke-width="4.01459"/>
</svg>
