<svg width="211" height="54" viewBox="0 0 211 54" fill="none" xmlns="http://www.w3.org/2000/svg">
<path d="M63.9961 34.1662H60.4199V20.2411H64.0161C66.0339 20.2411 67.5911 20.805 68.6878 21.9326C69.7821 23.0625 70.3293 24.7629 70.3293 27.0339C70.3293 28.4856 70.0863 29.7454 69.6001 30.8131C69.114 31.8831 68.4003 32.7089 67.4591 33.2905C66.5156 33.8743 65.3613 34.1662 63.9961 34.1662ZM63.9362 22.239H62.9972V31.9686H63.9362C64.6687 31.9686 65.2781 31.8298 65.7642 31.5524C66.2503 31.2771 66.6377 30.9075 66.9263 30.4435C67.2171 29.9818 67.4236 29.459 67.5456 28.8752C67.67 28.2936 67.7321 27.6998 67.7321 27.0938C67.7321 26.2547 67.6156 25.4655 67.3825 24.7263C67.1494 23.9871 66.7565 23.3878 66.2037 22.9282C65.651 22.4687 64.8951 22.239 63.9362 22.239ZM75.0743 22.5986H72.2772V19.9414H75.0743V22.5986ZM74.9744 34.1662H72.3771V24.2169H74.9744V34.1662ZM80.3486 34.1662H77.8513V24.2169H80.1089L80.2287 25.975C80.3353 25.7153 80.4996 25.4389 80.7215 25.1459C80.9457 24.8529 81.2565 24.6042 81.6539 24.4C82.049 24.198 82.5596 24.097 83.1856 24.097C83.3787 24.097 83.5485 24.1103 83.695 24.1369C83.8416 24.1636 83.9781 24.2035 84.1046 24.2568L83.5452 26.874C83.3321 26.6609 83.0058 26.5544 82.5662 26.5544C82.0535 26.5544 81.6339 26.6587 81.3076 26.8674C80.9813 27.0782 80.7404 27.3136 80.585 27.5733C80.4274 27.833 80.3486 28.0328 80.3486 28.1726V34.1662ZM89.6187 34.4259C88.4999 34.4259 87.5975 34.1906 86.9116 33.72C86.2257 33.2516 85.7262 32.629 85.4132 31.852C85.1002 31.0773 84.9437 30.2304 84.9437 29.3114C84.9437 28.3458 85.1224 27.4578 85.4798 26.6476C85.835 25.8396 86.3577 25.1925 87.0481 24.7063C87.7363 24.2202 88.5798 23.9771 89.5787 23.9771C91.0705 23.9771 92.1127 24.4078 92.7054 25.2691C93.2981 26.1326 93.5944 27.3535 93.5944 28.9318C93.5944 29.0717 93.5911 29.2481 93.5844 29.4613C93.5778 29.6744 93.5678 29.8575 93.5545 30.0107H87.5609C87.6009 30.7965 87.8228 31.4125 88.2269 31.8587C88.6286 32.3049 89.2324 32.528 90.0383 32.528C90.4511 32.528 90.894 32.4359 91.3668 32.2516C91.8397 32.0696 92.1893 31.8487 92.4157 31.589L93.2148 33.487C92.9485 33.6668 92.5278 33.8677 91.9529 34.0896C91.3757 34.3138 90.5977 34.4259 89.6187 34.4259ZM87.5409 28.4523H91.0572C91.0572 27.7531 90.9961 27.2181 90.874 26.8474C90.7497 26.4789 90.581 26.2247 90.3679 26.0849C90.1548 25.945 89.9117 25.8751 89.6387 25.8751C88.9594 25.8751 88.4499 26.1259 88.1103 26.6276C87.7707 27.1315 87.5809 27.7398 87.5409 28.4523ZM99.8677 34.406C98.8089 34.406 97.9465 34.1673 97.2805 33.6901C96.6146 33.215 96.124 32.5846 95.8087 31.7988C95.4913 31.0129 95.3326 30.1572 95.3326 29.2315C95.3326 28.3125 95.5091 27.4534 95.862 26.6543C96.215 25.8551 96.7378 25.2091 97.4304 24.7163C98.1229 24.2235 98.982 23.9771 100.008 23.9771C100.58 23.9771 101.1 24.0371 101.566 24.1569C102.032 24.2768 102.485 24.5165 102.924 24.8762L102.105 26.9939C101.906 26.6942 101.615 26.4622 101.233 26.298C100.849 26.1359 100.487 26.0549 100.147 26.0549C98.6957 26.0549 97.9698 27.1071 97.9698 29.2115C97.9698 30.317 98.1507 31.1195 98.5125 31.6189C98.8766 32.1184 99.4215 32.3681 100.147 32.3681C100.627 32.3681 101.05 32.276 101.416 32.0918C101.782 31.9097 102.059 31.7155 102.245 31.5091L103.004 33.2872C102.818 33.487 102.452 33.7234 101.906 33.9964C101.359 34.2694 100.68 34.406 99.8677 34.406ZM108.239 34.4659C107.113 34.4659 106.353 34.1729 105.958 33.5868C105.561 33.0008 105.362 32.1151 105.362 30.9297V26.3146H104.063V24.2169H105.462L105.602 22.1191L107.779 21.1801V24.2169H110.237V26.3146H107.779V30.8698C107.779 31.4491 107.861 31.8498 108.026 32.0718C108.188 32.296 108.412 32.4081 108.698 32.4081C108.991 32.4081 109.301 32.3315 109.627 32.1784C109.954 32.0252 110.21 31.8687 110.396 31.7089L110.876 33.7267C110.67 33.8732 110.402 34.0008 110.073 34.1096C109.743 34.2206 109.41 34.3072 109.075 34.3693C108.737 34.4337 108.459 34.4659 108.239 34.4659ZM116.69 34.366C115.225 34.366 114.093 33.9065 113.293 32.9875C112.494 32.0685 112.095 30.7965 112.095 29.1716C112.095 27.5333 112.508 26.258 113.333 25.3457C114.159 24.4333 115.305 23.9771 116.77 23.9771C118.241 23.9771 119.362 24.4477 120.133 25.3889C120.901 26.3324 121.285 27.5933 121.285 29.1716C121.285 30.7499 120.887 32.0096 120.093 32.9509C119.296 33.8943 118.162 34.366 116.69 34.366ZM116.73 32.3681C117.995 32.3681 118.628 31.3026 118.628 29.1716C118.628 27.0272 117.995 25.955 116.73 25.955C116.104 25.955 115.618 26.2025 115.271 26.6975C114.925 27.1948 114.752 28.0195 114.752 29.1716C114.752 30.317 114.925 31.1361 115.271 31.6289C115.618 32.1217 116.104 32.3681 116.73 32.3681ZM124.581 34.1662H121.784L127.678 20.0014H127.878L133.791 34.1662H131.074L130.295 32.1484H125.321L124.581 34.1662ZM127.758 25.2957L127.438 26.4145L126.04 30.2105H129.556L128.098 26.4145L127.758 25.2957ZM137.358 34.1662H134.88V20.0014H135.08L140.714 26.6443L146.308 20.0014H146.528V34.1662H144.05V28.1926L144.14 25.8351L143.431 26.914L140.694 30.1305L137.957 26.914L137.248 25.8351L137.358 28.1926V34.1662ZM152.152 22.5986H149.355V19.9414H152.152V22.5986ZM152.052 34.1662H149.455V24.2169H152.052V34.1662ZM159.944 34.406C159.218 34.406 158.518 34.2572 157.846 33.9598C157.173 33.6645 156.569 33.215 156.034 32.6112C155.497 32.0096 155.072 31.2427 154.759 30.3103C154.446 29.378 154.29 28.2792 154.29 27.0139C154.29 25.4955 154.555 24.2146 155.085 23.1713C155.614 22.1302 156.323 21.3411 157.213 20.8038C158.101 20.2689 159.084 20.0014 160.163 20.0014C160.896 20.0014 161.494 20.0713 161.958 20.2111C162.42 20.351 162.789 20.5175 163.067 20.7106C163.342 20.9037 163.566 21.0802 163.739 21.24L162.621 23.3378C162.334 23.0248 162.038 22.7729 161.732 22.5819C161.425 22.3933 160.936 22.2989 160.263 22.2989C159.584 22.2989 159.007 22.4954 158.532 22.8883C158.054 23.2812 157.69 23.8217 157.44 24.5099C157.191 25.2003 157.067 25.9883 157.067 26.874C157.067 28.6122 157.357 29.9219 157.939 30.8032C158.523 31.6867 159.224 32.1284 160.043 32.1284C160.676 32.1284 161.215 32.0385 161.662 31.8587C162.108 31.6789 162.441 31.4758 162.661 31.2493L163.759 33.2272C163.573 33.3804 163.324 33.548 163.014 33.73C162.705 33.9143 162.302 34.073 161.805 34.2062C161.31 34.3394 160.689 34.406 159.944 34.406ZM167.555 34.4459C166.943 34.4459 166.435 34.3094 166.034 34.0364C165.63 33.7633 165.329 33.4004 165.131 32.9475C164.936 32.4947 164.838 31.9952 164.838 31.4491C164.838 31.1428 164.917 30.8065 165.075 30.4402C165.23 30.0739 165.508 29.7243 165.907 29.3913C166.307 29.0584 166.869 28.7853 167.595 28.5722C168.321 28.3591 169.254 28.2525 170.392 28.2525V27.793C170.392 27.3002 170.275 26.8907 170.039 26.5644C169.802 26.238 169.327 26.0749 168.614 26.0749C168.095 26.0749 167.586 26.1626 167.089 26.3379C166.594 26.5155 166.23 26.7342 165.997 26.9939L165.198 25.0759C165.597 24.8029 166.131 24.551 166.799 24.3201C167.47 24.0914 168.215 23.9771 169.034 23.9771C170.019 23.9771 170.785 24.127 171.331 24.4266C171.877 24.7263 172.26 25.1503 172.48 25.6986C172.7 26.2491 172.81 26.894 172.81 27.6332V34.1662H170.672L170.492 32.7477C169.8 33.8799 168.821 34.4459 167.555 34.4459ZM168.614 32.528C168.914 32.528 169.236 32.4059 169.58 32.1617C169.922 31.9197 170.193 31.609 170.392 31.2294V29.8109C170.326 29.7976 170.255 29.7909 170.179 29.7909H169.913C169.547 29.7909 169.161 29.832 168.757 29.9141C168.356 29.9985 168.015 30.1439 167.735 30.3503C167.455 30.5568 167.316 30.8431 167.316 31.2094C167.316 31.6889 167.422 32.0285 167.635 32.2283C167.848 32.4281 168.175 32.528 168.614 32.528ZM178.204 34.346C177.478 34.346 176.883 34.2772 176.419 34.1396C175.957 34.0042 175.598 33.8477 175.34 33.6701C175.085 33.4947 174.907 33.3471 174.808 33.2272L175.547 31.3293C175.84 31.569 176.214 31.8054 176.669 32.0385C177.126 32.2716 177.658 32.3881 178.264 32.3881C178.737 32.3881 179.067 32.2916 179.256 32.0984C179.447 31.9053 179.543 31.6955 179.543 31.4691C179.543 31.1561 179.326 30.8731 178.893 30.62C178.46 30.367 177.958 30.1172 177.385 29.8708C177.045 29.7243 176.686 29.5378 176.306 29.3114C175.926 29.085 175.601 28.7853 175.33 28.4124C175.062 28.0394 174.927 27.56 174.927 26.9739C174.927 26.0749 175.255 25.3568 175.91 24.8196C176.567 24.2846 177.498 24.0171 178.703 24.0171C179.476 24.0171 180.13 24.1314 180.665 24.36C181.202 24.5909 181.56 24.7962 181.74 24.9761L181.061 26.7741C180.801 26.5743 180.472 26.3845 180.072 26.2047C179.672 26.0249 179.243 25.935 178.783 25.935C178.277 25.935 177.924 26.0016 177.724 26.1348C177.525 26.268 177.425 26.4811 177.425 26.7741C177.425 27.1004 177.602 27.3679 177.958 27.5766C178.315 27.7875 178.743 27.9928 179.243 28.1926C180.075 28.5189 180.746 28.9196 181.254 29.3947C181.765 29.8719 182.02 30.4768 182.02 31.2094C182.02 31.7555 181.893 32.266 181.64 32.7411C181.387 33.2184 180.981 33.6046 180.422 33.8998C179.862 34.1973 179.123 34.346 178.204 34.346ZM186.215 34.4459C185.603 34.4459 185.095 34.3094 184.694 34.0364C184.29 33.7633 183.989 33.4004 183.791 32.9475C183.596 32.4947 183.498 31.9952 183.498 31.4491C183.498 31.1428 183.577 30.8065 183.735 30.4402C183.89 30.0739 184.168 29.7243 184.567 29.3913C184.967 29.0584 185.529 28.7853 186.255 28.5722C186.981 28.3591 187.914 28.2525 189.052 28.2525V27.793C189.052 27.3002 188.934 26.8907 188.696 26.5644C188.461 26.238 187.987 26.0749 187.274 26.0749C186.755 26.0749 186.246 26.1626 185.749 26.3379C185.254 26.5155 184.89 26.7342 184.657 26.9939L183.858 25.0759C184.258 24.8029 184.791 24.551 185.46 24.3201C186.13 24.0914 186.875 23.9771 187.694 23.9771C188.679 23.9771 189.445 24.127 189.991 24.4266C190.537 24.7263 190.92 25.1503 191.14 25.6986C191.36 26.2491 191.47 26.894 191.47 27.6332V34.1662H189.332L189.152 32.7477C188.46 33.8799 187.481 34.4459 186.215 34.4459ZM187.274 32.528C187.574 32.528 187.895 32.4059 188.237 32.1617C188.581 31.9197 188.853 31.609 189.052 31.2294V29.8109C188.986 29.7976 188.915 29.7909 188.839 29.7909H188.573C188.207 29.7909 187.821 29.832 187.417 29.9141C187.016 29.9985 186.675 30.1439 186.395 30.3503C186.116 30.5568 185.976 30.8431 185.976 31.2094C185.976 31.6889 186.082 32.0285 186.295 32.2283C186.508 32.4281 186.835 32.528 187.274 32.528Z" fill="#FFFFF5"/>
<path d="M8.76871 22.0555C10.71 22.0555 12.3349 20.6687 12.4934 18.8063L12.5726 18.3308V18.0138L13.801 8.70212H7.5004L5.08299 17.9346C4.8852 18.9252 5.16257 19.9158 5.83618 20.7479C6.20173 21.1644 6.65304 21.4969 7.15917 21.7226C7.66529 21.9483 8.21458 22.0619 8.76871 22.0555ZM26.9956 22.0555H27.0748C28.1446 22.0555 29.1749 21.6196 29.8881 20.8272C30.4825 20.1535 30.7995 19.3611 30.7995 18.4893L29.5708 8.74174H23.2709V18.5289C23.2709 20.4705 24.9351 22.0555 26.9956 22.0555ZM17.882 22.0555H17.9612C20.0217 22.0555 21.6859 20.4705 21.6859 18.4893V8.74174H15.3856L14.1569 18.5289C14.1569 19.3611 14.4743 20.1932 15.0686 20.8272C15.7819 21.6196 16.8121 22.0555 17.882 22.0555Z" fill="#FFFFF5"/>
<path d="M41.4988 18.5686C41.4987 19.3375 41.3196 20.0958 40.9757 20.7836C40.6318 21.4713 40.1326 22.0696 39.5176 22.531C39.6761 22.4122 39.7949 22.2933 39.9138 22.1744V43.6112H17.5261V36.7958C17.5261 33.9825 15.2279 31.6842 12.4146 31.6842C9.60124 31.6842 7.30303 33.9825 7.30303 36.7958V43.6112H5.04445V22.1744C5.16332 22.2933 5.32182 22.4122 5.44069 22.531C4.82564 22.0696 4.32642 21.4713 3.98255 20.7836C3.63869 20.0958 3.4596 19.3375 3.45947 18.5686V45.1961H41.4988V18.5686ZM13.9599 37.826H15.5449V39.4506H13.9599V37.826Z" fill="#FFFFF5"/>
<path d="M32.3856 18.3309L32.4253 18.8064C32.5838 20.6687 34.2083 22.0952 36.1499 22.0952C37.2987 22.0952 38.3689 21.6197 39.0821 20.748C39.7558 19.9555 40.0331 18.9649 39.8347 17.9346L37.4572 8.74179H31.1573L32.346 18.0139C32.3856 18.1327 32.3856 18.212 32.3856 18.3309ZM8.49219 25.7406H10.8297V27.3256H8.49219V25.7406ZM13.6034 25.7406H15.9415V27.3256H13.6037L13.6034 25.7406ZM18.7545 25.7406H21.0927V27.3256H18.7549L18.7545 25.7406ZM23.9057 25.7406H26.2439V27.3256H23.906L23.9057 25.7406ZM29.0176 25.7406H31.3551V27.3256H29.0176V25.7406ZM34.1687 25.7406H36.5062V27.3256H34.1687V25.7406ZM30.3648 41.7885V31.0106H25.7684V40.2035H24.7778V41.7885H25.7684H30.3648ZM31.9498 41.7885H37.5368V40.2035H36.5462V31.0106H31.9498V41.7885Z" fill="#FFFFF5"/>
</svg>
