<svg width="266" height="67" viewBox="0 0 266 67" fill="none" xmlns="http://www.w3.org/2000/svg">
<mask id="path-1-outside-1_1_194" maskUnits="userSpaceOnUse" x="74.9446" y="23.286" width="167" height="21" fill="black">
<rect fill="white" x="74.9446" y="23.286" width="167" height="21"/>
<path d="M80.4396 42.1657H75.9446V24.6627H80.4647C83.001 24.6627 84.9584 25.3714 86.3367 26.7888C87.7123 28.2091 88.4001 30.3464 88.4001 33.2008C88.4001 35.0256 88.0946 36.609 87.4835 37.9511C86.8725 39.296 85.9754 40.3339 84.7924 41.065C83.6065 41.7988 82.1556 42.1657 80.4396 42.1657ZM80.3643 27.1739H79.184V39.4034H80.3643C81.2851 39.4034 82.051 39.229 82.662 38.8802C83.2731 38.5342 83.76 38.0697 84.1227 37.4865C84.4882 36.9062 84.7477 36.2491 84.9012 35.5152C85.0574 34.7842 85.1356 34.0378 85.1356 33.2761C85.1356 32.2214 84.9891 31.2295 84.6961 30.3003C84.4031 29.3712 83.9092 28.6178 83.2145 28.0402C82.5197 27.4627 81.5697 27.1739 80.3643 27.1739ZM94.3642 27.6259H90.8485V24.286H94.3642V27.6259ZM94.2386 42.1657H90.9741V29.66H94.2386V42.1657ZM100.994 42.1657H97.8547V29.66H100.692L100.843 31.8698C100.977 31.5434 101.183 31.196 101.462 30.8277C101.744 30.4594 102.135 30.1469 102.634 29.8902C103.131 29.6362 103.773 29.5093 104.56 29.5093C104.802 29.5093 105.016 29.526 105.2 29.5595C105.384 29.593 105.556 29.6432 105.715 29.7102L105.012 32.9999C104.744 32.732 104.334 32.5981 103.781 32.5981C103.137 32.5981 102.609 32.7292 102.199 32.9915C101.789 33.2566 101.486 33.5523 101.291 33.8788C101.093 34.2052 100.994 34.4563 100.994 34.6321V42.1657ZM112.646 42.4922C111.239 42.4922 110.105 42.1964 109.243 41.6049C108.381 41.0161 107.753 40.2335 107.36 39.2569C106.966 38.2831 106.769 37.2187 106.769 36.0635C106.769 34.8498 106.994 33.7337 107.443 32.7153C107.89 31.6996 108.547 30.8863 109.415 30.2752C110.28 29.6642 111.34 29.3586 112.595 29.3586C114.47 29.3586 115.78 29.8999 116.525 30.9825C117.27 32.0679 117.643 33.6025 117.643 35.5864C117.643 35.7622 117.639 35.984 117.63 36.2518C117.622 36.5197 117.609 36.7499 117.593 36.9424H110.059C110.109 37.9302 110.388 38.7045 110.896 39.2653C111.401 39.8261 112.16 40.1065 113.173 40.1065C113.692 40.1065 114.249 39.9907 114.843 39.7592C115.437 39.5304 115.877 39.2527 116.161 38.9263L117.166 41.3119C116.831 41.5379 116.302 41.7904 115.58 42.0694C114.854 42.3513 113.876 42.4922 112.646 42.4922ZM110.034 34.9837H114.454C114.454 34.1048 114.377 33.4323 114.224 32.9664C114.067 32.5032 113.855 32.1837 113.587 32.0079C113.32 31.8321 113.014 31.7443 112.671 31.7443C111.817 31.7443 111.177 32.0596 110.75 32.6901C110.323 33.3235 110.084 34.088 110.034 34.9837ZM125.528 42.4671C124.197 42.4671 123.113 42.1671 122.276 41.5672C121.439 40.9701 120.822 40.1777 120.426 39.1899C120.027 38.2022 119.828 37.1266 119.828 35.9631C119.828 34.8079 120.05 33.7281 120.493 32.7236C120.937 31.7191 121.594 30.9072 122.464 30.2878C123.335 29.6683 124.415 29.3586 125.704 29.3586C126.424 29.3586 127.077 29.434 127.663 29.5846C128.249 29.7353 128.818 30.0366 129.37 30.4887L128.341 33.1505C128.09 32.7738 127.724 32.4823 127.244 32.2758C126.761 32.0721 126.307 31.9703 125.88 31.9703C124.055 31.9703 123.142 33.2928 123.142 35.9379C123.142 37.3275 123.37 38.3361 123.825 38.9639C124.282 39.5917 124.967 39.9056 125.88 39.9056C126.482 39.9056 127.014 39.7898 127.474 39.5583C127.935 39.3295 128.282 39.0853 128.516 38.8258L129.471 41.0608C129.236 41.3119 128.776 41.6091 128.09 41.9523C127.403 42.2955 126.549 42.4671 125.528 42.4671ZM136.05 42.5424C134.635 42.5424 133.68 42.1741 133.183 41.4375C132.684 40.7009 132.434 39.5876 132.434 38.0976V32.2967H130.802V29.66H132.559L132.735 27.0232L135.472 25.843V29.66H138.561V32.2967H135.472V38.0222C135.472 38.7505 135.576 39.2541 135.782 39.5331C135.986 39.815 136.268 39.9559 136.628 39.9559C136.996 39.9559 137.385 39.8596 137.795 39.6671C138.205 39.4745 138.528 39.2778 138.762 39.0769L139.365 41.6133C139.105 41.7974 138.769 41.9578 138.356 42.0946C137.94 42.2341 137.522 42.3429 137.101 42.421C136.676 42.5019 136.326 42.5424 136.05 42.5424ZM146.672 42.4168C144.831 42.4168 143.408 41.8393 142.403 40.6841C141.399 39.529 140.897 37.9302 140.897 35.8877C140.897 33.8285 141.416 32.2256 142.454 31.0788C143.492 29.932 144.931 29.3586 146.773 29.3586C148.623 29.3586 150.032 29.9501 151 31.1332C151.965 32.319 152.448 33.9039 152.448 35.8877C152.448 37.8716 151.949 39.455 150.95 40.6381C149.948 41.8239 148.522 42.4168 146.672 42.4168ZM146.723 39.9056C148.313 39.9056 149.108 38.5663 149.108 35.8877C149.108 33.1924 148.313 31.8447 146.723 31.8447C145.936 31.8447 145.325 32.1558 144.889 32.778C144.454 33.403 144.237 34.4396 144.237 35.8877C144.237 37.3275 144.454 38.3571 144.889 38.9765C145.325 39.5959 145.936 39.9056 146.723 39.9056ZM156.592 42.1657H153.076L160.484 24.3613H160.735L168.168 42.1657H164.753L163.774 39.6294H157.521L156.592 42.1657ZM160.584 31.016L160.183 32.4223L158.425 37.1935H162.844L161.011 32.4223L160.584 31.016ZM172.651 42.1657H169.537V24.3613H169.788L176.869 32.7111L183.901 24.3613H184.177V42.1657H181.063V34.6572L181.176 31.694L180.285 33.0501L176.844 37.0931L173.404 33.0501L172.513 31.694L172.651 34.6572V42.1657ZM191.246 27.6259H187.73V24.286H191.246V27.6259ZM191.121 42.1657H187.856V29.66H191.121V42.1657ZM201.04 42.4671C200.127 42.4671 199.248 42.2801 198.403 41.9062C197.558 41.5351 196.799 40.9701 196.126 40.2112C195.451 39.455 194.917 38.491 194.523 37.3191C194.13 36.1472 193.933 34.7661 193.933 33.1756C193.933 31.2671 194.266 29.6572 194.933 28.3458C195.597 27.0372 196.489 26.0452 197.608 25.37C198.724 24.6976 199.96 24.3613 201.316 24.3613C202.237 24.3613 202.989 24.4492 203.572 24.625C204.152 24.8008 204.617 25.0101 204.966 25.2528C205.312 25.4956 205.593 25.7174 205.811 25.9183L204.405 28.555C204.045 28.1616 203.672 27.8449 203.287 27.605C202.902 27.3678 202.287 27.2492 201.441 27.2492C200.588 27.2492 199.862 27.4962 199.265 27.99C198.665 28.4839 198.208 29.1633 197.892 30.0283C197.58 30.896 197.424 31.8866 197.424 32.9999C197.424 35.1846 197.789 36.8308 198.52 37.9385C199.254 39.049 200.136 39.6043 201.165 39.6043C201.96 39.6043 202.639 39.4913 203.199 39.2653C203.76 39.0393 204.179 38.784 204.455 38.4994L205.836 40.9855C205.602 41.178 205.289 41.3886 204.899 41.6174C204.511 41.849 204.004 42.0485 203.379 42.2159C202.757 42.3833 201.977 42.4671 201.04 42.4671ZM210.607 42.5173C209.837 42.5173 209.2 42.3457 208.695 42.0025C208.187 41.6593 207.809 41.2031 207.56 40.6339C207.315 40.0647 207.192 39.4369 207.192 38.7505C207.192 38.3654 207.291 37.9427 207.489 37.4823C207.685 37.0219 208.033 36.5825 208.536 36.164C209.038 35.7454 209.745 35.4022 210.658 35.1344C211.57 34.8665 212.742 34.7326 214.173 34.7326V34.155C214.173 33.5356 214.025 33.0208 213.73 32.6106C213.431 32.2005 212.834 31.9954 211.938 31.9954C211.285 31.9954 210.646 32.1056 210.021 32.326C209.399 32.5492 208.942 32.8241 208.649 33.1505L207.644 30.7398C208.146 30.3966 208.817 30.0799 209.657 29.7897C210.5 29.5023 211.436 29.3586 212.466 29.3586C213.705 29.3586 214.667 29.547 215.354 29.9236C216.04 30.3003 216.521 30.8333 216.797 31.5224C217.074 32.2144 217.212 33.025 217.212 33.9541V42.1657H214.525L214.299 40.3828C213.428 41.8058 212.198 42.5173 210.607 42.5173ZM211.938 40.1065C212.315 40.1065 212.72 39.9531 213.152 39.6461C213.582 39.342 213.922 38.9514 214.173 38.4743V36.6913C214.09 36.6746 214 36.6662 213.905 36.6662H213.571C213.11 36.6662 212.626 36.7178 212.118 36.8211C211.613 36.9271 211.185 37.1098 210.833 37.3693C210.482 37.6288 210.306 37.9888 210.306 38.4491C210.306 39.0518 210.44 39.4787 210.708 39.7299C210.976 39.981 211.386 40.1065 211.938 40.1065ZM223.992 42.3917C223.08 42.3917 222.332 42.3052 221.749 42.1322C221.168 41.962 220.716 41.7653 220.393 41.5421C220.072 41.3217 219.849 41.1361 219.723 40.9855L220.652 38.5998C221.02 38.9012 221.491 39.1983 222.063 39.4913C222.637 39.7843 223.306 39.9307 224.067 39.9307C224.662 39.9307 225.077 39.8094 225.315 39.5666C225.555 39.3239 225.675 39.0602 225.675 38.7756C225.675 38.3822 225.402 38.0264 224.858 37.7083C224.314 37.3903 223.682 37.0764 222.962 36.7666C222.536 36.5825 222.084 36.3481 221.606 36.0635C221.129 35.7789 220.721 35.4022 220.38 34.9335C220.042 34.4647 219.874 33.862 219.874 33.1254C219.874 31.9954 220.285 31.0927 221.108 30.4175C221.934 29.7451 223.105 29.4088 224.62 29.4088C225.591 29.4088 226.413 29.5525 227.085 29.8399C227.76 30.1301 228.211 30.3882 228.437 30.6142L227.583 32.8743C227.257 32.6232 226.842 32.3846 226.34 32.1586C225.838 31.9326 225.298 31.8196 224.72 31.8196C224.084 31.8196 223.64 31.9033 223.389 32.0707C223.138 32.2381 223.013 32.506 223.013 32.8743C223.013 33.2845 223.236 33.6207 223.682 33.883C224.132 34.148 224.67 34.4061 225.298 34.6572C226.344 35.0674 227.187 35.571 227.826 36.1681C228.468 36.768 228.788 37.5284 228.788 38.4491C228.788 39.1355 228.629 39.7773 228.311 40.3744C227.993 40.9743 227.483 41.4598 226.779 41.8309C226.076 42.2048 225.147 42.3917 223.992 42.3917ZM234.062 42.5173C233.292 42.5173 232.654 42.3457 232.149 42.0025C231.641 41.6593 231.263 41.2031 231.015 40.6339C230.769 40.0647 230.647 39.4369 230.647 38.7505C230.647 38.3654 230.746 37.9427 230.944 37.4823C231.139 37.0219 231.488 36.5825 231.99 36.164C232.492 35.7454 233.2 35.4022 234.112 35.1344C235.025 34.8665 236.196 34.7326 237.628 34.7326V34.155C237.628 33.5356 237.479 33.0208 237.18 32.6106C236.884 32.2005 236.288 31.9954 235.393 31.9954C234.74 31.9954 234.101 32.1056 233.476 32.326C232.854 32.5492 232.396 32.8241 232.103 33.1505L231.099 30.7398C231.601 30.3966 232.272 30.0799 233.112 29.7897C233.955 29.5023 234.891 29.3586 235.92 29.3586C237.159 29.3586 238.122 29.547 238.808 29.9236C239.494 30.3003 239.976 30.8333 240.252 31.5224C240.528 32.2144 240.666 33.025 240.666 33.9541V42.1657H237.979L237.753 40.3828C236.883 41.8058 235.652 42.5173 234.062 42.5173ZM235.393 40.1065C235.77 40.1065 236.173 39.9531 236.602 39.6461C237.035 39.342 237.377 38.9514 237.628 38.4743V36.6913C237.544 36.6746 237.455 36.6662 237.36 36.6662H237.025C236.565 36.6662 236.081 36.7178 235.573 36.8211C235.068 36.9271 234.64 37.1098 234.288 37.3693C233.936 37.6288 233.761 37.9888 233.761 38.4491C233.761 39.0518 233.895 39.4787 234.162 39.7299C234.43 39.981 234.84 40.1065 235.393 40.1065Z"/>
</mask>
<path d="M80.4396 42.1657H75.9446V24.6627H80.4647C83.001 24.6627 84.9584 25.3714 86.3367 26.7888C87.7123 28.2091 88.4001 30.3464 88.4001 33.2008C88.4001 35.0256 88.0946 36.609 87.4835 37.9511C86.8725 39.296 85.9754 40.3339 84.7924 41.065C83.6065 41.7988 82.1556 42.1657 80.4396 42.1657ZM80.3643 27.1739H79.184V39.4034H80.3643C81.2851 39.4034 82.051 39.229 82.662 38.8802C83.2731 38.5342 83.76 38.0697 84.1227 37.4865C84.4882 36.9062 84.7477 36.2491 84.9012 35.5152C85.0574 34.7842 85.1356 34.0378 85.1356 33.2761C85.1356 32.2214 84.9891 31.2295 84.6961 30.3003C84.4031 29.3712 83.9092 28.6178 83.2145 28.0402C82.5197 27.4627 81.5697 27.1739 80.3643 27.1739ZM94.3642 27.6259H90.8485V24.286H94.3642V27.6259ZM94.2386 42.1657H90.9741V29.66H94.2386V42.1657ZM100.994 42.1657H97.8547V29.66H100.692L100.843 31.8698C100.977 31.5434 101.183 31.196 101.462 30.8277C101.744 30.4594 102.135 30.1469 102.634 29.8902C103.131 29.6362 103.773 29.5093 104.56 29.5093C104.802 29.5093 105.016 29.526 105.2 29.5595C105.384 29.593 105.556 29.6432 105.715 29.7102L105.012 32.9999C104.744 32.732 104.334 32.5981 103.781 32.5981C103.137 32.5981 102.609 32.7292 102.199 32.9915C101.789 33.2566 101.486 33.5523 101.291 33.8788C101.093 34.2052 100.994 34.4563 100.994 34.6321V42.1657ZM112.646 42.4922C111.239 42.4922 110.105 42.1964 109.243 41.6049C108.381 41.0161 107.753 40.2335 107.36 39.2569C106.966 38.2831 106.769 37.2187 106.769 36.0635C106.769 34.8498 106.994 33.7337 107.443 32.7153C107.89 31.6996 108.547 30.8863 109.415 30.2752C110.28 29.6642 111.34 29.3586 112.595 29.3586C114.47 29.3586 115.78 29.8999 116.525 30.9825C117.27 32.0679 117.643 33.6025 117.643 35.5864C117.643 35.7622 117.639 35.984 117.63 36.2518C117.622 36.5197 117.609 36.7499 117.593 36.9424H110.059C110.109 37.9302 110.388 38.7045 110.896 39.2653C111.401 39.8261 112.16 40.1065 113.173 40.1065C113.692 40.1065 114.249 39.9907 114.843 39.7592C115.437 39.5304 115.877 39.2527 116.161 38.9263L117.166 41.3119C116.831 41.5379 116.302 41.7904 115.58 42.0694C114.854 42.3513 113.876 42.4922 112.646 42.4922ZM110.034 34.9837H114.454C114.454 34.1048 114.377 33.4323 114.224 32.9664C114.067 32.5032 113.855 32.1837 113.587 32.0079C113.32 31.8321 113.014 31.7443 112.671 31.7443C111.817 31.7443 111.177 32.0596 110.75 32.6901C110.323 33.3235 110.084 34.088 110.034 34.9837ZM125.528 42.4671C124.197 42.4671 123.113 42.1671 122.276 41.5672C121.439 40.9701 120.822 40.1777 120.426 39.1899C120.027 38.2022 119.828 37.1266 119.828 35.9631C119.828 34.8079 120.05 33.7281 120.493 32.7236C120.937 31.7191 121.594 30.9072 122.464 30.2878C123.335 29.6683 124.415 29.3586 125.704 29.3586C126.424 29.3586 127.077 29.434 127.663 29.5846C128.249 29.7353 128.818 30.0366 129.37 30.4887L128.341 33.1505C128.09 32.7738 127.724 32.4823 127.244 32.2758C126.761 32.0721 126.307 31.9703 125.88 31.9703C124.055 31.9703 123.142 33.2928 123.142 35.9379C123.142 37.3275 123.37 38.3361 123.825 38.9639C124.282 39.5917 124.967 39.9056 125.88 39.9056C126.482 39.9056 127.014 39.7898 127.474 39.5583C127.935 39.3295 128.282 39.0853 128.516 38.8258L129.471 41.0608C129.236 41.3119 128.776 41.6091 128.09 41.9523C127.403 42.2955 126.549 42.4671 125.528 42.4671ZM136.05 42.5424C134.635 42.5424 133.68 42.1741 133.183 41.4375C132.684 40.7009 132.434 39.5876 132.434 38.0976V32.2967H130.802V29.66H132.559L132.735 27.0232L135.472 25.843V29.66H138.561V32.2967H135.472V38.0222C135.472 38.7505 135.576 39.2541 135.782 39.5331C135.986 39.815 136.268 39.9559 136.628 39.9559C136.996 39.9559 137.385 39.8596 137.795 39.6671C138.205 39.4745 138.528 39.2778 138.762 39.0769L139.365 41.6133C139.105 41.7974 138.769 41.9578 138.356 42.0946C137.94 42.2341 137.522 42.3429 137.101 42.421C136.676 42.5019 136.326 42.5424 136.05 42.5424ZM146.672 42.4168C144.831 42.4168 143.408 41.8393 142.403 40.6841C141.399 39.529 140.897 37.9302 140.897 35.8877C140.897 33.8285 141.416 32.2256 142.454 31.0788C143.492 29.932 144.931 29.3586 146.773 29.3586C148.623 29.3586 150.032 29.9501 151 31.1332C151.965 32.319 152.448 33.9039 152.448 35.8877C152.448 37.8716 151.949 39.455 150.95 40.6381C149.948 41.8239 148.522 42.4168 146.672 42.4168ZM146.723 39.9056C148.313 39.9056 149.108 38.5663 149.108 35.8877C149.108 33.1924 148.313 31.8447 146.723 31.8447C145.936 31.8447 145.325 32.1558 144.889 32.778C144.454 33.403 144.237 34.4396 144.237 35.8877C144.237 37.3275 144.454 38.3571 144.889 38.9765C145.325 39.5959 145.936 39.9056 146.723 39.9056ZM156.592 42.1657H153.076L160.484 24.3613H160.735L168.168 42.1657H164.753L163.774 39.6294H157.521L156.592 42.1657ZM160.584 31.016L160.183 32.4223L158.425 37.1935H162.844L161.011 32.4223L160.584 31.016ZM172.651 42.1657H169.537V24.3613H169.788L176.869 32.7111L183.901 24.3613H184.177V42.1657H181.063V34.6572L181.176 31.694L180.285 33.0501L176.844 37.0931L173.404 33.0501L172.513 31.694L172.651 34.6572V42.1657ZM191.246 27.6259H187.73V24.286H191.246V27.6259ZM191.121 42.1657H187.856V29.66H191.121V42.1657ZM201.04 42.4671C200.127 42.4671 199.248 42.2801 198.403 41.9062C197.558 41.5351 196.799 40.9701 196.126 40.2112C195.451 39.455 194.917 38.491 194.523 37.3191C194.13 36.1472 193.933 34.7661 193.933 33.1756C193.933 31.2671 194.266 29.6572 194.933 28.3458C195.597 27.0372 196.489 26.0452 197.608 25.37C198.724 24.6976 199.96 24.3613 201.316 24.3613C202.237 24.3613 202.989 24.4492 203.572 24.625C204.152 24.8008 204.617 25.0101 204.966 25.2528C205.312 25.4956 205.593 25.7174 205.811 25.9183L204.405 28.555C204.045 28.1616 203.672 27.8449 203.287 27.605C202.902 27.3678 202.287 27.2492 201.441 27.2492C200.588 27.2492 199.862 27.4962 199.265 27.99C198.665 28.4839 198.208 29.1633 197.892 30.0283C197.58 30.896 197.424 31.8866 197.424 32.9999C197.424 35.1846 197.789 36.8308 198.52 37.9385C199.254 39.049 200.136 39.6043 201.165 39.6043C201.96 39.6043 202.639 39.4913 203.199 39.2653C203.76 39.0393 204.179 38.784 204.455 38.4994L205.836 40.9855C205.602 41.178 205.289 41.3886 204.899 41.6174C204.511 41.849 204.004 42.0485 203.379 42.2159C202.757 42.3833 201.977 42.4671 201.04 42.4671ZM210.607 42.5173C209.837 42.5173 209.2 42.3457 208.695 42.0025C208.187 41.6593 207.809 41.2031 207.56 40.6339C207.315 40.0647 207.192 39.4369 207.192 38.7505C207.192 38.3654 207.291 37.9427 207.489 37.4823C207.685 37.0219 208.033 36.5825 208.536 36.164C209.038 35.7454 209.745 35.4022 210.658 35.1344C211.57 34.8665 212.742 34.7326 214.173 34.7326V34.155C214.173 33.5356 214.025 33.0208 213.73 32.6106C213.431 32.2005 212.834 31.9954 211.938 31.9954C211.285 31.9954 210.646 32.1056 210.021 32.326C209.399 32.5492 208.942 32.8241 208.649 33.1505L207.644 30.7398C208.146 30.3966 208.817 30.0799 209.657 29.7897C210.5 29.5023 211.436 29.3586 212.466 29.3586C213.705 29.3586 214.667 29.547 215.354 29.9236C216.04 30.3003 216.521 30.8333 216.797 31.5224C217.074 32.2144 217.212 33.025 217.212 33.9541V42.1657H214.525L214.299 40.3828C213.428 41.8058 212.198 42.5173 210.607 42.5173ZM211.938 40.1065C212.315 40.1065 212.72 39.9531 213.152 39.6461C213.582 39.342 213.922 38.9514 214.173 38.4743V36.6913C214.09 36.6746 214 36.6662 213.905 36.6662H213.571C213.11 36.6662 212.626 36.7178 212.118 36.8211C211.613 36.9271 211.185 37.1098 210.833 37.3693C210.482 37.6288 210.306 37.9888 210.306 38.4491C210.306 39.0518 210.44 39.4787 210.708 39.7299C210.976 39.981 211.386 40.1065 211.938 40.1065ZM223.992 42.3917C223.08 42.3917 222.332 42.3052 221.749 42.1322C221.168 41.962 220.716 41.7653 220.393 41.5421C220.072 41.3217 219.849 41.1361 219.723 40.9855L220.652 38.5998C221.02 38.9012 221.491 39.1983 222.063 39.4913C222.637 39.7843 223.306 39.9307 224.067 39.9307C224.662 39.9307 225.077 39.8094 225.315 39.5666C225.555 39.3239 225.675 39.0602 225.675 38.7756C225.675 38.3822 225.402 38.0264 224.858 37.7083C224.314 37.3903 223.682 37.0764 222.962 36.7666C222.536 36.5825 222.084 36.3481 221.606 36.0635C221.129 35.7789 220.721 35.4022 220.38 34.9335C220.042 34.4647 219.874 33.862 219.874 33.1254C219.874 31.9954 220.285 31.0927 221.108 30.4175C221.934 29.7451 223.105 29.4088 224.62 29.4088C225.591 29.4088 226.413 29.5525 227.085 29.8399C227.76 30.1301 228.211 30.3882 228.437 30.6142L227.583 32.8743C227.257 32.6232 226.842 32.3846 226.34 32.1586C225.838 31.9326 225.298 31.8196 224.72 31.8196C224.084 31.8196 223.64 31.9033 223.389 32.0707C223.138 32.2381 223.013 32.506 223.013 32.8743C223.013 33.2845 223.236 33.6207 223.682 33.883C224.132 34.148 224.67 34.4061 225.298 34.6572C226.344 35.0674 227.187 35.571 227.826 36.1681C228.468 36.768 228.788 37.5284 228.788 38.4491C228.788 39.1355 228.629 39.7773 228.311 40.3744C227.993 40.9743 227.483 41.4598 226.779 41.8309C226.076 42.2048 225.147 42.3917 223.992 42.3917ZM234.062 42.5173C233.292 42.5173 232.654 42.3457 232.149 42.0025C231.641 41.6593 231.263 41.2031 231.015 40.6339C230.769 40.0647 230.647 39.4369 230.647 38.7505C230.647 38.3654 230.746 37.9427 230.944 37.4823C231.139 37.0219 231.488 36.5825 231.99 36.164C232.492 35.7454 233.2 35.4022 234.112 35.1344C235.025 34.8665 236.196 34.7326 237.628 34.7326V34.155C237.628 33.5356 237.479 33.0208 237.18 32.6106C236.884 32.2005 236.288 31.9954 235.393 31.9954C234.74 31.9954 234.101 32.1056 233.476 32.326C232.854 32.5492 232.396 32.8241 232.103 33.1505L231.099 30.7398C231.601 30.3966 232.272 30.0799 233.112 29.7897C233.955 29.5023 234.891 29.3586 235.92 29.3586C237.159 29.3586 238.122 29.547 238.808 29.9236C239.494 30.3003 239.976 30.8333 240.252 31.5224C240.528 32.2144 240.666 33.025 240.666 33.9541V42.1657H237.979L237.753 40.3828C236.883 41.8058 235.652 42.5173 234.062 42.5173ZM235.393 40.1065C235.77 40.1065 236.173 39.9531 236.602 39.6461C237.035 39.342 237.377 38.9514 237.628 38.4743V36.6913C237.544 36.6746 237.455 36.6662 237.36 36.6662H237.025C236.565 36.6662 236.081 36.7178 235.573 36.8211C235.068 36.9271 234.64 37.1098 234.288 37.3693C233.936 37.6288 233.761 37.9888 233.761 38.4491C233.761 39.0518 233.895 39.4787 234.162 39.7299C234.43 39.981 234.84 40.1065 235.393 40.1065Z" fill="#4F1A0F"/>
<path d="M80.4396 42.1657H75.9446V24.6627H80.4647C83.001 24.6627 84.9584 25.3714 86.3367 26.7888C87.7123 28.2091 88.4001 30.3464 88.4001 33.2008C88.4001 35.0256 88.0946 36.609 87.4835 37.9511C86.8725 39.296 85.9754 40.3339 84.7924 41.065C83.6065 41.7988 82.1556 42.1657 80.4396 42.1657ZM80.3643 27.1739H79.184V39.4034H80.3643C81.2851 39.4034 82.051 39.229 82.662 38.8802C83.2731 38.5342 83.76 38.0697 84.1227 37.4865C84.4882 36.9062 84.7477 36.2491 84.9012 35.5152C85.0574 34.7842 85.1356 34.0378 85.1356 33.2761C85.1356 32.2214 84.9891 31.2295 84.6961 30.3003C84.4031 29.3712 83.9092 28.6178 83.2145 28.0402C82.5197 27.4627 81.5697 27.1739 80.3643 27.1739ZM94.3642 27.6259H90.8485V24.286H94.3642V27.6259ZM94.2386 42.1657H90.9741V29.66H94.2386V42.1657ZM100.994 42.1657H97.8547V29.66H100.692L100.843 31.8698C100.977 31.5434 101.183 31.196 101.462 30.8277C101.744 30.4594 102.135 30.1469 102.634 29.8902C103.131 29.6362 103.773 29.5093 104.56 29.5093C104.802 29.5093 105.016 29.526 105.2 29.5595C105.384 29.593 105.556 29.6432 105.715 29.7102L105.012 32.9999C104.744 32.732 104.334 32.5981 103.781 32.5981C103.137 32.5981 102.609 32.7292 102.199 32.9915C101.789 33.2566 101.486 33.5523 101.291 33.8788C101.093 34.2052 100.994 34.4563 100.994 34.6321V42.1657ZM112.646 42.4922C111.239 42.4922 110.105 42.1964 109.243 41.6049C108.381 41.0161 107.753 40.2335 107.36 39.2569C106.966 38.2831 106.769 37.2187 106.769 36.0635C106.769 34.8498 106.994 33.7337 107.443 32.7153C107.89 31.6996 108.547 30.8863 109.415 30.2752C110.28 29.6642 111.34 29.3586 112.595 29.3586C114.47 29.3586 115.78 29.8999 116.525 30.9825C117.27 32.0679 117.643 33.6025 117.643 35.5864C117.643 35.7622 117.639 35.984 117.63 36.2518C117.622 36.5197 117.609 36.7499 117.593 36.9424H110.059C110.109 37.9302 110.388 38.7045 110.896 39.2653C111.401 39.8261 112.16 40.1065 113.173 40.1065C113.692 40.1065 114.249 39.9907 114.843 39.7592C115.437 39.5304 115.877 39.2527 116.161 38.9263L117.166 41.3119C116.831 41.5379 116.302 41.7904 115.58 42.0694C114.854 42.3513 113.876 42.4922 112.646 42.4922ZM110.034 34.9837H114.454C114.454 34.1048 114.377 33.4323 114.224 32.9664C114.067 32.5032 113.855 32.1837 113.587 32.0079C113.32 31.8321 113.014 31.7443 112.671 31.7443C111.817 31.7443 111.177 32.0596 110.75 32.6901C110.323 33.3235 110.084 34.088 110.034 34.9837ZM125.528 42.4671C124.197 42.4671 123.113 42.1671 122.276 41.5672C121.439 40.9701 120.822 40.1777 120.426 39.1899C120.027 38.2022 119.828 37.1266 119.828 35.9631C119.828 34.8079 120.05 33.7281 120.493 32.7236C120.937 31.7191 121.594 30.9072 122.464 30.2878C123.335 29.6683 124.415 29.3586 125.704 29.3586C126.424 29.3586 127.077 29.434 127.663 29.5846C128.249 29.7353 128.818 30.0366 129.37 30.4887L128.341 33.1505C128.09 32.7738 127.724 32.4823 127.244 32.2758C126.761 32.0721 126.307 31.9703 125.88 31.9703C124.055 31.9703 123.142 33.2928 123.142 35.9379C123.142 37.3275 123.37 38.3361 123.825 38.9639C124.282 39.5917 124.967 39.9056 125.88 39.9056C126.482 39.9056 127.014 39.7898 127.474 39.5583C127.935 39.3295 128.282 39.0853 128.516 38.8258L129.471 41.0608C129.236 41.3119 128.776 41.6091 128.09 41.9523C127.403 42.2955 126.549 42.4671 125.528 42.4671ZM136.05 42.5424C134.635 42.5424 133.68 42.1741 133.183 41.4375C132.684 40.7009 132.434 39.5876 132.434 38.0976V32.2967H130.802V29.66H132.559L132.735 27.0232L135.472 25.843V29.66H138.561V32.2967H135.472V38.0222C135.472 38.7505 135.576 39.2541 135.782 39.5331C135.986 39.815 136.268 39.9559 136.628 39.9559C136.996 39.9559 137.385 39.8596 137.795 39.6671C138.205 39.4745 138.528 39.2778 138.762 39.0769L139.365 41.6133C139.105 41.7974 138.769 41.9578 138.356 42.0946C137.94 42.2341 137.522 42.3429 137.101 42.421C136.676 42.5019 136.326 42.5424 136.05 42.5424ZM146.672 42.4168C144.831 42.4168 143.408 41.8393 142.403 40.6841C141.399 39.529 140.897 37.9302 140.897 35.8877C140.897 33.8285 141.416 32.2256 142.454 31.0788C143.492 29.932 144.931 29.3586 146.773 29.3586C148.623 29.3586 150.032 29.9501 151 31.1332C151.965 32.319 152.448 33.9039 152.448 35.8877C152.448 37.8716 151.949 39.455 150.95 40.6381C149.948 41.8239 148.522 42.4168 146.672 42.4168ZM146.723 39.9056C148.313 39.9056 149.108 38.5663 149.108 35.8877C149.108 33.1924 148.313 31.8447 146.723 31.8447C145.936 31.8447 145.325 32.1558 144.889 32.778C144.454 33.403 144.237 34.4396 144.237 35.8877C144.237 37.3275 144.454 38.3571 144.889 38.9765C145.325 39.5959 145.936 39.9056 146.723 39.9056ZM156.592 42.1657H153.076L160.484 24.3613H160.735L168.168 42.1657H164.753L163.774 39.6294H157.521L156.592 42.1657ZM160.584 31.016L160.183 32.4223L158.425 37.1935H162.844L161.011 32.4223L160.584 31.016ZM172.651 42.1657H169.537V24.3613H169.788L176.869 32.7111L183.901 24.3613H184.177V42.1657H181.063V34.6572L181.176 31.694L180.285 33.0501L176.844 37.0931L173.404 33.0501L172.513 31.694L172.651 34.6572V42.1657ZM191.246 27.6259H187.73V24.286H191.246V27.6259ZM191.121 42.1657H187.856V29.66H191.121V42.1657ZM201.04 42.4671C200.127 42.4671 199.248 42.2801 198.403 41.9062C197.558 41.5351 196.799 40.9701 196.126 40.2112C195.451 39.455 194.917 38.491 194.523 37.3191C194.13 36.1472 193.933 34.7661 193.933 33.1756C193.933 31.2671 194.266 29.6572 194.933 28.3458C195.597 27.0372 196.489 26.0452 197.608 25.37C198.724 24.6976 199.96 24.3613 201.316 24.3613C202.237 24.3613 202.989 24.4492 203.572 24.625C204.152 24.8008 204.617 25.0101 204.966 25.2528C205.312 25.4956 205.593 25.7174 205.811 25.9183L204.405 28.555C204.045 28.1616 203.672 27.8449 203.287 27.605C202.902 27.3678 202.287 27.2492 201.441 27.2492C200.588 27.2492 199.862 27.4962 199.265 27.99C198.665 28.4839 198.208 29.1633 197.892 30.0283C197.58 30.896 197.424 31.8866 197.424 32.9999C197.424 35.1846 197.789 36.8308 198.52 37.9385C199.254 39.049 200.136 39.6043 201.165 39.6043C201.96 39.6043 202.639 39.4913 203.199 39.2653C203.76 39.0393 204.179 38.784 204.455 38.4994L205.836 40.9855C205.602 41.178 205.289 41.3886 204.899 41.6174C204.511 41.849 204.004 42.0485 203.379 42.2159C202.757 42.3833 201.977 42.4671 201.04 42.4671ZM210.607 42.5173C209.837 42.5173 209.2 42.3457 208.695 42.0025C208.187 41.6593 207.809 41.2031 207.56 40.6339C207.315 40.0647 207.192 39.4369 207.192 38.7505C207.192 38.3654 207.291 37.9427 207.489 37.4823C207.685 37.0219 208.033 36.5825 208.536 36.164C209.038 35.7454 209.745 35.4022 210.658 35.1344C211.57 34.8665 212.742 34.7326 214.173 34.7326V34.155C214.173 33.5356 214.025 33.0208 213.73 32.6106C213.431 32.2005 212.834 31.9954 211.938 31.9954C211.285 31.9954 210.646 32.1056 210.021 32.326C209.399 32.5492 208.942 32.8241 208.649 33.1505L207.644 30.7398C208.146 30.3966 208.817 30.0799 209.657 29.7897C210.5 29.5023 211.436 29.3586 212.466 29.3586C213.705 29.3586 214.667 29.547 215.354 29.9236C216.04 30.3003 216.521 30.8333 216.797 31.5224C217.074 32.2144 217.212 33.025 217.212 33.9541V42.1657H214.525L214.299 40.3828C213.428 41.8058 212.198 42.5173 210.607 42.5173ZM211.938 40.1065C212.315 40.1065 212.72 39.9531 213.152 39.6461C213.582 39.342 213.922 38.9514 214.173 38.4743V36.6913C214.09 36.6746 214 36.6662 213.905 36.6662H213.571C213.11 36.6662 212.626 36.7178 212.118 36.8211C211.613 36.9271 211.185 37.1098 210.833 37.3693C210.482 37.6288 210.306 37.9888 210.306 38.4491C210.306 39.0518 210.44 39.4787 210.708 39.7299C210.976 39.981 211.386 40.1065 211.938 40.1065ZM223.992 42.3917C223.08 42.3917 222.332 42.3052 221.749 42.1322C221.168 41.962 220.716 41.7653 220.393 41.5421C220.072 41.3217 219.849 41.1361 219.723 40.9855L220.652 38.5998C221.02 38.9012 221.491 39.1983 222.063 39.4913C222.637 39.7843 223.306 39.9307 224.067 39.9307C224.662 39.9307 225.077 39.8094 225.315 39.5666C225.555 39.3239 225.675 39.0602 225.675 38.7756C225.675 38.3822 225.402 38.0264 224.858 37.7083C224.314 37.3903 223.682 37.0764 222.962 36.7666C222.536 36.5825 222.084 36.3481 221.606 36.0635C221.129 35.7789 220.721 35.4022 220.38 34.9335C220.042 34.4647 219.874 33.862 219.874 33.1254C219.874 31.9954 220.285 31.0927 221.108 30.4175C221.934 29.7451 223.105 29.4088 224.62 29.4088C225.591 29.4088 226.413 29.5525 227.085 29.8399C227.76 30.1301 228.211 30.3882 228.437 30.6142L227.583 32.8743C227.257 32.6232 226.842 32.3846 226.34 32.1586C225.838 31.9326 225.298 31.8196 224.72 31.8196C224.084 31.8196 223.64 31.9033 223.389 32.0707C223.138 32.2381 223.013 32.506 223.013 32.8743C223.013 33.2845 223.236 33.6207 223.682 33.883C224.132 34.148 224.67 34.4061 225.298 34.6572C226.344 35.0674 227.187 35.571 227.826 36.1681C228.468 36.768 228.788 37.5284 228.788 38.4491C228.788 39.1355 228.629 39.7773 228.311 40.3744C227.993 40.9743 227.483 41.4598 226.779 41.8309C226.076 42.2048 225.147 42.3917 223.992 42.3917ZM234.062 42.5173C233.292 42.5173 232.654 42.3457 232.149 42.0025C231.641 41.6593 231.263 41.2031 231.015 40.6339C230.769 40.0647 230.647 39.4369 230.647 38.7505C230.647 38.3654 230.746 37.9427 230.944 37.4823C231.139 37.0219 231.488 36.5825 231.99 36.164C232.492 35.7454 233.2 35.4022 234.112 35.1344C235.025 34.8665 236.196 34.7326 237.628 34.7326V34.155C237.628 33.5356 237.479 33.0208 237.18 32.6106C236.884 32.2005 236.288 31.9954 235.393 31.9954C234.74 31.9954 234.101 32.1056 233.476 32.326C232.854 32.5492 232.396 32.8241 232.103 33.1505L231.099 30.7398C231.601 30.3966 232.272 30.0799 233.112 29.7897C233.955 29.5023 234.891 29.3586 235.92 29.3586C237.159 29.3586 238.122 29.547 238.808 29.9236C239.494 30.3003 239.976 30.8333 240.252 31.5224C240.528 32.2144 240.666 33.025 240.666 33.9541V42.1657H237.979L237.753 40.3828C236.883 41.8058 235.652 42.5173 234.062 42.5173ZM235.393 40.1065C235.77 40.1065 236.173 39.9531 236.602 39.6461C237.035 39.342 237.377 38.9514 237.628 38.4743V36.6913C237.544 36.6746 237.455 36.6662 237.36 36.6662H237.025C236.565 36.6662 236.081 36.7178 235.573 36.8211C235.068 36.9271 234.64 37.1098 234.288 37.3693C233.936 37.6288 233.761 37.9888 233.761 38.4491C233.761 39.0518 233.895 39.4787 234.162 39.7299C234.43 39.981 234.84 40.1065 235.393 40.1065Z" stroke="white" stroke-width="1.93474" mask="url(#path-1-outside-1_1_194)"/>
<path d="M11.0221 26.9433C13.4621 26.9433 15.5045 25.2002 15.7038 22.8593L15.8034 22.2616V21.8632L17.3473 10.1589H9.42786L6.38932 21.7636C6.14072 23.0087 6.48935 24.2539 7.33604 25.2998C7.79552 25.8233 8.36279 26.2412 8.99896 26.5249C9.63512 26.8086 10.3255 26.9514 11.0221 26.9433ZM33.9321 26.9433H34.0317C35.3764 26.9433 36.6714 26.3955 37.5679 25.3994C38.315 24.5527 38.7134 23.5566 38.7134 22.4609L37.169 10.2087H29.2504V22.5107C29.2504 24.9511 31.3422 26.9433 33.9321 26.9433ZM22.4769 26.9433H22.5765C25.1664 26.9433 27.2582 24.9511 27.2582 22.4609V10.2087H19.3391L17.7947 22.5107C17.7947 23.5566 18.1936 24.6025 18.9407 25.3994C19.8372 26.3955 21.1321 26.9433 22.4769 26.9433Z" fill="#F7B32C"/>
<path d="M52.1616 22.5604C52.1615 23.5269 51.9364 24.4801 51.5042 25.3445C51.0719 26.209 50.4445 26.9609 49.6714 27.541C49.8706 27.3915 50.02 27.2421 50.1694 27.0927V54.0374H22.0294V45.4709C22.0294 41.9347 19.1407 39.046 15.6045 39.046C12.0683 39.046 9.17963 41.9347 9.17963 45.4709V54.0374H6.34073V27.0927C6.49014 27.2421 6.68937 27.3915 6.83878 27.541C6.0657 26.9609 5.43821 26.209 5.00599 25.3445C4.57377 24.4801 4.34867 23.5269 4.34851 22.5604V56.0296H52.1616V22.5604ZM17.5469 46.7658H19.5391V48.8078H17.5469V46.7658Z" fill="#6A3C14"/>
<path d="M40.7068 22.2616L40.7566 22.8593C40.9558 25.2002 42.9978 26.9931 45.4383 26.9931C46.8822 26.9931 48.2274 26.3955 49.1239 25.2998C49.9706 24.3037 50.3192 23.0585 50.0698 21.7636L47.0814 10.2087H39.1628L40.6569 21.8632C40.7067 22.0126 40.7068 22.1122 40.7068 22.2616ZM10.6741 31.5752H13.6122V33.5675H10.6741V31.5752ZM17.0986 31.5752H20.0375V33.5675H17.099L17.0986 31.5752ZM23.5733 31.5752H26.5122V33.5675H23.5737L23.5733 31.5752ZM30.048 31.5752H32.9869V33.5675H30.0484L30.048 31.5752ZM36.4733 31.5752H39.4114V33.5675H36.4733V31.5752ZM42.948 31.5752H45.8861V33.5675H42.948V31.5752ZM38.1667 51.7464V38.1993H32.3893V49.7542H31.1441V51.7464H32.3893H38.1667ZM40.1589 51.7464H47.1815V49.7542H45.9363V38.1993H40.1589V51.7464Z" fill="#B3B826"/>
<path d="M59.9695 1.05872V65.5688V1.05872Z" fill="#6A3C14"/>
<path d="M59.9695 1.05872V65.5688" stroke="black" stroke-width="4.01459"/>
</svg>
